<?xml version="1.0" encoding="UTF-8" standalone="no"?>
<svg
   xmlns:dc="http://purl.org/dc/elements/1.1/"
   xmlns:cc="http://creativecommons.org/ns#"
   xmlns:rdf="http://www.w3.org/1999/02/22-rdf-syntax-ns#"
   xmlns:svg="http://www.w3.org/2000/svg"
   xmlns="http://www.w3.org/2000/svg"
   xmlns:sodipodi="http://sodipodi.sourceforge.net/DTD/sodipodi-0.dtd"
   xmlns:inkscape="http://www.inkscape.org/namespaces/inkscape"
   viewBox="0 0 150 34.67"
   version="1.1"
   id="svg3709"
   sodipodi:docname="vaadin-logo.svg"
   inkscape:version="0.92.2 5c3e80d, 2017-08-06">
  <metadata
     id="metadata3715">
    <rdf:RDF>
      <cc:Work
         rdf:about="">
        <dc:format>image/svg+xml</dc:format>
        <dc:type
           rdf:resource="http://purl.org/dc/dcmitype/StillImage" />
      </cc:Work>
    </rdf:RDF>
  </metadata>
  <defs
     id="defs3713" />
  <sodipodi:namedview
     pagecolor="#ffffff"
     bordercolor="#666666"
     borderopacity="1"
     objecttolerance="10"
     gridtolerance="10"
     guidetolerance="10"
     inkscape:pageopacity="0"
     inkscape:pageshadow="2"
     inkscape:window-width="1680"
     inkscape:window-height="1001"
     id="namedview3711"
     showgrid="false"
     inkscape:zoom="7.9333333"
     inkscape:cx="73.991597"
     inkscape:cy="17.334999"
     inkscape:window-x="0"
     inkscape:window-y="1"
     inkscape:window-maximized="1"
     inkscape:current-layer="svg3709" />
  <title
     id="title3699">vaadinlogo</title>
  <path
     d="M149.95 17.33a2 2 0 0 0-1.2-1.86h-.08L135.48 8.3a2.28 2.28 0 0 0-3.42 2 2.23 2.23 0 0 0 1.56 2.17l9.11 4.89-9.1 4.88a2.23 2.23 0 0 0-1.57 2.17 2.28 2.28 0 0 0 3.42 2l13.19-7.13h.06a2 2 0 0 0 1.23-1.87m-19.6-.09a1.82 1.82 0 0 0-1.82-1.82h-.44a1.73 1.73 0 0 1-1.72-1.73V4.44A4.43 4.43 0 0 0 121.95 0h-3.41a1.7 1.7 0 0 0-.84 3.19 1.7 1.7 0 0 0 .83.22h1.07a1.73 1.73 0 0 1 1.73 1.73v8.46a3.65 3.65 0 0 0 3.1 3.61 5.38 5.38 0 0 0 .9.09v.08a5.38 5.38 0 0 0-.9.09 3.65 3.65 0 0 0-3.1 3.61v8.45a1.73 1.73 0 0 1-1.73 1.73h-1.07a1.7 1.7 0 0 0-.83.22 1.7 1.7 0 0 0 .84 3.19h3.41a4.43 4.43 0 0 0 4.43-4.44V20.9a1.73 1.73 0 0 1 1.72-1.73h.44a1.82 1.82 0 0 0 1.82-1.82z"
     fill="#00b4f0"
     id="path3701"
     style="fill:#000000;fill-opacity:1" />
  <path
     d="M51 7.64A9.87 9.87 0 1 0 56 26a2.54 2.54 0 0 0 4.81-1.14v-7.35A9.87 9.87 0 0 0 51 7.64zm0 14.64a4.77 4.77 0 1 1 4.77-4.77A4.77 4.77 0 0 1 51 22.28zM19 10.16a2.54 2.54 0 0 0-4.8-1.09l-4.71 9.86-4.71-9.86v-.05l-.07-.13-.06-.1-.07-.1-.08-.11-.09-.08-.1-.11-.07-.07-.11-.1L4 8.16l-.1-.08L3.84 8h-.1l-.13-.07h-.08l-.15-.06H1.83l-.17.05h-.07l-.18.07L1.2 8h-.07L1 8.11l-.08.06-.11.09-.08.07-.09.1-.07.08-.09.11-.07.08-.09.13v.07l-.12.15v.06l-.07.17v.06L0 9.51v1.59l.07.16 7 14.61a2.54 2.54 0 0 0 4.62.05l7-14.66a2.53 2.53 0 0 0 .31-1.1zm10.22-2.52A9.87 9.87 0 1 0 34.28 26a2.54 2.54 0 0 0 4.81-1.14v-7.35a9.87 9.87 0 0 0-9.87-9.87zm0 14.64A4.77 4.77 0 1 1 34 17.51a4.77 4.77 0 0 1-4.78 4.77zM82.42 17V2.88a2.54 2.54 0 0 0-5.08 0v6A9.87 9.87 0 1 0 77.61 26a2.54 2.54 0 0 0 4.81-1.14v-7.38c0-.17.01-.32 0-.48zm-9.86 5.3a4.77 4.77 0 1 1 4.77-4.77 4.77 4.77 0 0 1-4.76 4.75z"
     fill="#f8f8f8"
     id="path3703"
     style="fill:#000000;fill-opacity:1" />
  <circle
     cx="88.95"
     cy="2.88"
     r="2.54"
     fill="#f8f8f8"
     id="circle3705"
     style="fill:#000000;fill-opacity:1" />
  <path
     d="M89 7.64a2.54 2.54 0 0 0-2.54 2.54v14.67a2.54 2.54 0 1 0 5.08 0V10.18A2.54 2.54 0 0 0 89 7.64zm16.74.55a7.79 7.79 0 0 0-4.84 1.68 2.54 2.54 0 0 0-5.06.31v14.67a2.54 2.54 0 0 0 5.08 0v-7.72a3.78 3.78 0 1 1 7.57 0v7.72a2.54 2.54 0 0 0 5.08 0V16a7.83 7.83 0 0 0-7.83-7.81z"
     fill="#f8f8f8"
     id="path3707"
     style="fill:#000000;fill-opacity:1" />
</svg>
